<svg xmlns="http://www.w3.org/2000/svg" width="32" height="32" viewBox="0 0 8.467 8.467"><g stroke="#586597" transform="translate(0 -274.578) scale(.26458)"><path fill="#fe8099" stroke="none" d="m 29.5,1053.7747 a 13.5,13.5 0 0 1 -13.5,13.5 13.5,13.5 0 0 1 -13.5,-13.5 13.5,13.5 0 0 1 13.5,-13.5 13.5,13.5 0 0 1 13.5,13.5 z"/><path fill="#fff" stroke="none" d="m 26.5,1053.7747 a 10.5,10.5 0 0 1 -10.5,10.5 10.5,10.5 0 0 1 -10.5,-10.5 10.5,10.5 0 0 1 10.5,-10.5 10.5,10.5 0 0 1 10.5,10.5 z"/><path fill="none" stroke-linecap="round" stroke-linejoin="round" d="m 29.5,1053.7747 a 13.5,13.5 0 0 1 -13.5,13.5 13.5,13.5 0 0 1 -13.5,-13.5 13.5,13.5 0 0 1 13.5,-13.5 13.5,13.5 0 0 1 13.5,13.5 z"/><path fill="none" stroke-linecap="round" stroke-linejoin="round" d="m 26.5,1053.7747 a 10.5,10.5 0 0 1 -10.5,10.5 10.5,10.5 0 0 1 -10.5,-10.5 10.5,10.5 0 0 1 10.5,-10.5 10.5,10.5 0 0 1 10.5,10.5 z"/><path fill="none" stroke-linecap="round" stroke-linejoin="round" d="M9.0050443 1051.7731l1.4949027-1.4984v6.9929M16.500007 1052.0247a1.7500063 1.7500063 0 0 1-1.750006 1.75 1.7500063 1.7500063 0 0 1-1.750006-1.75 1.7500063 1.7500063 0 0 1 1.750006-1.75 1.7500063 1.7500063 0 0 1 1.750006 1.75zM16.500007 1055.5247a1.7500063 1.7500063 0 0 1-1.750006 1.75 1.7500063 1.7500063 0 0 1-1.750006-1.75 1.7500063 1.7500063 0 0 1 1.750006-1.75 1.7500063 1.7500063 0 0 1 1.750006 1.75z"/><path fill="none" stroke-linecap="round" stroke-linejoin="round" stroke-width=".749" d="M21.000001 1033.3786v2.986M22.493001 1034.8716h-2.986" transform="translate(-7.038 -327.587) scale(1.33482)"/></g></svg>