<svg xmlns="http://www.w3.org/2000/svg" enable-background="new 0 0 24 24" viewBox="0 0 24 24"><path fill="#303c42" d="M20.004,12.208l0.001-0.048c0.005-0.235,0.009-0.461-0.006-0.693l0,0l0,0l-0.403-6.042   c-0.079-1.177-0.734-2.226-1.753-2.807C16.548,1.88,14.482,1,12,1S7.452,1.88,6.157,2.618c-1.02,0.581-1.675,1.63-1.753,2.807   l-0.403,6.042l0,0l0,0c-0.015,0.232-0.011,0.458-0.006,0.693l0.001,0.048C3.11,12.784,3,13.776,3,14.5   c0,0.963,0.899,3.13,2.173,3.458C5.734,19.004,8.131,23,12,23s6.266-3.996,6.827-5.042C20.101,17.63,21,15.463,21,14.5   C21,13.776,20.89,12.784,20.004,12.208z"/><path fill="#fff" d="M5.402,5.491c0.056-0.841,0.523-1.59,1.25-2.004C7.843,2.809,9.736,2,12,2s4.157,0.809,5.348,1.487   c0.727,0.414,1.195,1.163,1.25,2.004l0.349,5.234c-0.691-0.278-1.795-0.688-3.016-1.042C15.97,9.461,16,9.234,16,9   c0-2.206-1.794-4-4-4S8,6.794,8,9c0,0.234,0.03,0.461,0.069,0.684c-1.221,0.354-2.325,0.764-3.016,1.042L5.402,5.491z"/><circle cx="12" cy="9" r="3" fill="#e6e6e6"/><path fill="#fff" d="M12.653,6.653c-1.654,0-3,1.346-3,3   c0,0.661,0.221,1.267,0.584,1.763C10.733,11.779,11.339,12,12,12c1.654,0,3-1.346,3-3c0-0.661-0.221-1.267-0.584-1.763   C13.919,6.874,13.314,6.653,12.653,6.653z" enable-background="new" opacity=".2"/><path fill="#fff" d="M11.347,11.347c1.654,0,3-1.346,3-3   c0-0.661-0.221-1.267-0.584-1.763C13.267,6.221,12.661,6,12,6c-1.654,0-3,1.346-3,3c0,0.661,0.221,1.267,0.584,1.763   C10.081,11.126,10.686,11.347,11.347,11.347z" enable-background="new" opacity=".5"/><path fill="#bbdefb" d="M12,22c-3.113,0-5.169-3.135-5.823-4.293C7.175,17.197,9.756,16,12,16   c2.24,0,4.824,1.198,5.823,1.707C17.169,18.866,15.113,22,12,22z"/><path fill="#ffe69b" d="M18.582,16.974C17.847,16.576,14.765,15,12,15s-5.847,1.576-6.582,1.974   C4.798,16.839,4,15.232,4,14.5c0-1.071,0.341-1.376,0.709-1.546C4.887,12.872,5,12.695,5,12.5l-0.005-0.361   c-0.002-0.104,0.002-0.206,0.002-0.308c0.558-0.235,1.875-0.762,3.363-1.192C8.988,12.027,10.38,13,12,13s3.012-0.973,3.64-2.361   c1.488,0.431,2.805,0.957,3.363,1.192c0,0.102,0.004,0.203,0.002,0.308L19,12.5c0,0.195,0.113,0.372,0.291,0.454   C19.66,13.124,20,13.429,20,14.5C20,15.232,19.202,16.839,18.582,16.974z"/><path d="M17.777,5.491l0.286,4.897c0.333,0.122,0.641,0.239,0.884,0.337   l-0.349-5.234c-0.056-0.841-0.523-1.59-1.25-2.004C16.157,2.809,14.264,2,12,2c1.982,0,3.64,0.809,4.682,1.487   C17.319,3.901,17.729,4.65,17.777,5.491z" enable-background="new" opacity=".1"/><path fill="#fff" d="M6.223 5.491c.049-.841.458-1.59 1.095-2.004C8.36 2.809 10.018 2 12 2 9.736 2 7.843 2.809 6.652 3.487 5.925 3.901 5.457 4.65 5.402 5.491l-.349 5.234c.243-.098.551-.215.884-.337L6.223 5.491zM6.95 17.336c-.305.139-.577.27-.773.37C6.831 18.865 8.887 22 12 22 9.342 22 7.568 18.695 6.95 17.336z" enable-background="new" opacity=".2"/><path d="M17.05,17.337C16.431,18.696,14.657,22,12,22   c3.113,0,5.169-3.134,5.823-4.293C17.626,17.607,17.355,17.476,17.05,17.337z" enable-background="new" opacity=".1"/><path fill="#fff" d="M4.995,14.251c0-1.179,0.298-1.515,0.621-1.702   c0.155-0.09,0.254-0.285,0.254-0.5l-0.004-0.398c-0.001-0.057,0-0.113,0.001-0.169c-0.369,0.142-0.67,0.264-0.87,0.349L5,12.049   c0,0.006-0.004,0.011-0.004,0.017c0,0.025-0.001,0.048,0,0.073L5,12.5c0,0.195-0.113,0.372-0.291,0.454   c-0.346,0.16-0.664,0.447-0.702,1.368c0.04,0.832,0.807,2.507,1.41,2.652C5.525,16.909,5.698,16.811,5.9,16.7   C5.443,16.146,4.995,14.896,4.995,14.251z" enable-background="new" opacity=".2"/><path d="M19.994,14.365c-0.029-0.956-0.352-1.249-0.704-1.411   C19.113,12.872,19,12.695,19,12.5l0.004-0.325c0-0.006-0.004-0.01-0.004-0.016l0.003-0.263c0-0.022,0-0.044,0-0.066   c-0.201-0.084-0.502-0.207-0.871-0.349c0.001,0.096,0.003,0.191,0.002,0.289l-0.004,0.389c0,0.21,0.099,0.4,0.254,0.489   c0.323,0.183,0.621,0.511,0.621,1.664c0,0.631-0.448,1.853-0.905,2.395c0.202,0.109,0.374,0.205,0.483,0.268   C19.19,16.832,19.964,15.173,19.994,14.365z" enable-background="new" opacity=".1"/><circle cx="12" cy="9" r="2" fill="#303c42"/><circle cx="12" cy="9" r="1" fill="#fff"/><circle cx="8.5" cy="13" r="1" fill="#303c42"/><circle cx="15.5" cy="13" r="1" fill="#303c42"/><linearGradient id="a" x1="3.135" x2="20.723" y1="16.419" y2="8.217" gradientTransform="matrix(1 0 0 -1 0 24)" gradientUnits="userSpaceOnUse"><stop offset="0" stop-color="#fff" stop-opacity=".2"/><stop offset="1" stop-color="#fff" stop-opacity="0"/></linearGradient><path fill="url(#a)" d="M20.004,12.208l0.001-0.048c0.005-0.235,0.009-0.461-0.006-0.693l0,0l0,0l-0.403-6.042   c-0.079-1.177-0.734-2.226-1.753-2.807C16.548,1.88,14.482,1,12,1S7.452,1.88,6.157,2.618c-1.02,0.581-1.675,1.63-1.753,2.807   l-0.403,6.042l0,0l0,0c-0.015,0.232-0.011,0.458-0.006,0.693l0.001,0.048C3.11,12.784,3,13.776,3,14.5   c0,0.963,0.899,3.13,2.173,3.458C5.734,19.004,8.131,23,12,23s6.266-3.996,6.827-5.042C20.101,17.63,21,15.463,21,14.5   C21,13.776,20.89,12.784,20.004,12.208z"/></svg>