<svg xmlns="http://www.w3.org/2000/svg" viewBox="0 0 48 48"><g data-name="blood pressure"><polygon fill="#e5c4b5" points="33.72 34.59 33.72 31.04 31.05 31.04 31.05 34.59 16.86 34.59 16.86 16.85 6.07 16.85 6.03 45.38 40.78 45.23 40.78 42.57 41.67 42.57 41.67 39.91 42.56 39.91 42.56 37.25 43.45 37.25 43.45 34.59 33.72 34.59"/><rect width="14" height="9.47" x="4.46" y="22.39" fill="#727176"/><polyline fill="#5b5b5f" points="6.21 31.54 5 31.54 5 22.39 6.21 22.39"/><circle cx="28.09" cy="8.39" r="4.75" fill="#d8d9dd"/><path fill="#c2c3c9" d="M29.09,13a4.76,4.76,0,1,1,0-9.29,4.75,4.75,0,0,0,0,9.29Z"/><ellipse cx="27.94" cy="22.63" fill="#444242" rx="4.1" ry="5.26"/><path fill="#211915" d="M34.46,33.84V30.29H30.3v3.55H28.66l.06-5.29c2.31-.46,4.08-2.94,4.08-5.92S31,17.15,28.69,16.7v-.82h1.56v.67h1.5V13.7h-1.5v.68H28.69v-.52a5.51,5.51,0,1,0-1.5,0V16.7c-2.32.45-4.1,2.93-4.1,5.93s1.8,5.5,4.13,5.93l-.06,5.28H17.6V32.6h1.61v-11H17.6V16.1H5.32v5.53H3.71v11H5.29l0,13.4,36.26,0V43.32h.89V40.66h.89V38h.89V33.84ZM24.08,8.39a4,4,0,1,1,4,4A4,4,0,0,1,24.08,8.39Zm.51,14.24c0-2.49,1.5-4.51,3.35-4.51s3.36,2,3.36,4.51-1.51,4.5-3.36,4.5S24.59,25.11,24.59,22.63Zm7.21,9.16H33v2.05H31.8ZM16.1,35.34H27a7.48,7.48,0,0,1-7.36,5.71,7.39,7.39,0,0,1-7.47-6.34l-.09-2.11h4ZM6.82,17.6H16.1v4H6.81ZM5.21,23.13h12.5v8H5.21ZM34.74,44.48l-28,0V32.6H10.6l.1,2.23a8.87,8.87,0,0,0,8.94,7.7,8.91,8.91,0,0,0,8.85-7.19h6.25Zm5.29,0H36.24V43.32H40Zm.89-2.66H36.24V40.66h4.68Zm.89-2.66H36.24V38h5.57Zm.89-2.66H36.24V35.34H42.7Z"/><rect width="3.16" height="1.5" x="27.52" y="6.78" fill="#211915" transform="rotate(-45 29.093 7.54)"/></g></svg>