<svg xmlns="http://www.w3.org/2000/svg" viewBox="0 0 24 24"><path fill="#303C42" d="M22.854 6.146c-.473-.471-.987-.442-1.364-.418-.337.022-.454.014-.596-.127-.142-.142-.147-.262-.127-.596.023-.376.054-.891-.418-1.363s-.988-.44-1.363-.417c-.33.02-.452.016-.593-.125-.14-.14-.145-.259-.124-.591.023-.376.056-.892-.415-1.363a.5.5 0 0 0-.785.102l-2.44 4.182c-2.063-.188-4.53.763-6.483 2.716-1.954 1.954-2.904 4.42-2.716 6.482l-4.182 2.44a.5.5 0 0 0-.102.785c.473.472.986.442 1.364.418.336-.021.454-.014.596.127.142.142.147.262.127.596-.023.376-.054.892.418 1.364.472.471.987.438 1.363.416.33-.022.45-.016.593.125.14.14.145.26.124.592-.023.376-.056.891.415 1.362a.5.5 0 0 0 .786-.101l2.446-4.194c.17.015.335.042.51.042 1.948 0 4.174-.954 5.966-2.747 1.954-1.953 2.904-4.419 2.716-6.482l4.182-2.44a.5.5 0 0 0 .102-.785z"/><path fill="#F2F2F2" d="M6.734 21.106a1.39 1.39 0 0 0-.42-.914c-.472-.472-.987-.438-1.362-.416-.33.022-.452.016-.594-.125-.142-.142-.147-.262-.127-.596.023-.376.054-.891-.418-1.364-.307-.306-.63-.4-.923-.423l2.745-1.601c.201.64.529 1.22 1.004 1.694.475.476 1.058.795 1.698.996l-1.603 2.749z"/><path fill="#D32F2F" d="M15.146 15.146c-2.566 2.567-6.066 3.242-7.8 1.508-1.735-1.735-1.059-5.234 1.508-7.8 1.604-1.605 3.572-2.47 5.247-2.47.237 0 .467.02.69.055.026.006.051.011.077.013.692.122 1.307.414 1.786.893 1.735 1.735 1.059 5.235-1.508 7.801z"/><path fill="#F2F2F2" d="M18.365 8.333c-.201-.64-.529-1.22-1.004-1.695a4.096 4.096 0 0 0-1.694-1.003l1.599-2.741c.023.29.117.61.42.913.472.472.987.439 1.362.416.333-.02.453-.015.594.126.142.142.147.262.127.596-.023.376-.054.89.418 1.363.307.307.63.401.923.423l-2.745 1.602z"/><path d="M16.654 7.345c-.479-.479-1.094-.77-1.786-.893a4.444 4.444 0 0 0-.768-.068c-1.674 0-3.642.865-5.246 2.47-2.567 2.566-3.243 6.065-1.508 7.8 1.734 1.734 5.234 1.059 7.8-1.508 2.567-2.566 3.243-6.066 1.508-7.8zm-.505 2.937c-.228 1.288-.994 2.661-2.1 3.767-1.359 1.36-3.058 2.171-4.544 2.171-.538 0-1.294-.115-1.842-.663-.78-.78-.706-1.976-.592-2.62.228-1.288.994-2.66 2.1-3.767C10.53 7.81 12.229 7 13.715 7c.538 0 1.294.115 1.842.662.78.781.706 1.977.592 2.62z" opacity=".1"/><path fill="#FFF" d="M9.004 14.5c-.167 0-.58-.022-.782-.224-.253-.254-.256-.836-.175-1.297.174-.978.803-2.088 1.683-2.968 1.069-1.068 2.404-1.732 3.484-1.732.168 0 .58.022.783.224.253.254.256.836.174 1.297-.173.978-.802 2.087-1.683 2.968-1.068 1.068-2.403 1.732-3.484 1.732zM17.998 4.04c-.105-.06-.21-.13-.312-.233a1.39 1.39 0 01-.42-.913l-1.599 2.741c.393.123.75.313 1.087.536l1.244-2.132z" opacity=".2"/><path d="M8.337 18.357a4.406 4.406 0 0 1-1.097-.518L6.002 19.96c.105.06.21.13.312.232.303.303.397.624.42.914l1.603-2.75z" opacity=".1"/><path fill="#303C42" d="M9.56 9.56c-1.106 1.107-1.871 2.48-2.099 3.768a.5.5 0 1 0 .985.174c.193-1.09.857-2.27 1.822-3.235a.5.5 0 1 0-.707-.707z"/><linearGradient id="a" x1="5.029" x2="18.971" y1="8.75" y2="15.251" gradientUnits="userSpaceOnUse"><stop offset="0" stop-color="#FFF" stop-opacity=".2"/><stop offset="1" stop-color="#FFF" stop-opacity="0"/></linearGradient><path fill="url(#a)" d="M22.854 6.146c-.473-.471-.987-.442-1.364-.418-.337.022-.454.014-.596-.127-.142-.142-.147-.262-.127-.596.023-.376.054-.891-.418-1.363s-.988-.44-1.363-.417c-.33.02-.452.016-.593-.125-.14-.14-.145-.259-.124-.591.023-.376.056-.892-.415-1.363a.5.5 0 0 0-.785.102l-2.44 4.182c-2.063-.188-4.53.763-6.483 2.716-1.954 1.954-2.904 4.42-2.716 6.482l-4.182 2.44a.5.5 0 0 0-.102.785c.473.472.986.442 1.364.418.336-.021.454-.014.596.127.142.142.147.262.127.596-.023.376-.054.892.418 1.364.472.471.987.438 1.363.416.33-.022.45-.016.593.125.14.14.145.26.124.592-.023.376-.056.891.415 1.362a.5.5 0 0 0 .786-.101l2.446-4.194c.17.015.335.042.51.042 1.948 0 4.174-.954 5.966-2.747 1.954-1.953 2.904-4.419 2.716-6.482l4.182-2.44a.5.5 0 0 0 .102-.785z"/></svg>