<svg xmlns="http://www.w3.org/2000/svg" enable-background="new 0 0 600 600" viewBox="0 0 600 600"><path fill="#fff" d="M272.7,402.7l-65.5,37.8c-2.1,1.2-4.7,0.5-5.9-1.6L84.8,237.2c-1.2-2.1-0.5-4.7,1.6-5.9l65.5-37.8
		c2.1-1.2,4.7-0.5,5.9,1.6l116.5,201.7C275.5,398.9,274.7,401.5,272.7,402.7z"/><path fill="#9ffdff" d="M103.3,229.2l113.6,196.8c1.9,3.3,6.2,4.5,9.6,2.6l43.6-25.2c3.3-1.9,4.5-6.2,2.6-9.6L159,197.1
		c-1.9-3.3-6.2-4.5-9.6-2.6l-43.6,25.1C102.5,221.6,101.3,225.9,103.3,229.2z"/><path fill="none" stroke="#000" stroke-linecap="round" stroke-linejoin="round" stroke-miterlimit="10" stroke-width="10" d="M272.7,402.7l-65.5,37.8c-2.1,1.2-4.7,0.5-5.9-1.6L84.8,237.2c-1.2-2.1-0.5-4.7,1.6-5.9l65.5-37.8
		c2.1-1.2,4.7-0.5,5.9,1.6l116.5,201.7C275.5,398.9,274.7,401.5,272.7,402.7z"/><line x1="182.3" x2="297.5" y1="454.9" y2="388.4" fill="none" stroke="#000" stroke-linecap="round" stroke-linejoin="round" stroke-miterlimit="10" stroke-width="10"/><line x1="151.6" x2="169.7" y1="227.1" y2="216.6" fill="none" stroke="#000" stroke-linecap="round" stroke-linejoin="round" stroke-miterlimit="10" stroke-width="10"/><line x1="174.3" x2="184.2" y1="247.4" y2="241.7" fill="none" stroke="#000" stroke-linecap="round" stroke-linejoin="round" stroke-miterlimit="10" stroke-width="10"/><line x1="180.5" x2="198.7" y1="277.2" y2="266.7" fill="none" stroke="#000" stroke-linecap="round" stroke-linejoin="round" stroke-miterlimit="10" stroke-width="10"/><line x1="203.2" x2="213.1" y1="297.5" y2="291.8" fill="none" stroke="#000" stroke-linecap="round" stroke-linejoin="round" stroke-miterlimit="10" stroke-width="10"/><line x1="209.5" x2="227.6" y1="327.4" y2="316.9" fill="none" stroke="#000" stroke-linecap="round" stroke-linejoin="round" stroke-miterlimit="10" stroke-width="10"/><line x1="232.2" x2="242.1" y1="347.7" y2="341.9" fill="none" stroke="#000" stroke-linecap="round" stroke-linejoin="round" stroke-miterlimit="10" stroke-width="10"/><line x1="238.1" x2="256.2" y1="376.9" y2="366.4" fill="none" stroke="#000" stroke-linecap="round" stroke-linejoin="round" stroke-miterlimit="10" stroke-width="10"/><path fill="#fff" d="M85.9,239.2l7.1,12.4c1.9,3.3,6.2,4.5,9.6,2.6l60.9-35.2c3.3-1.9,4.5-6.2,2.6-9.6l-7.1-12.4
		c-1.9-3.3-6.2-4.5-9.6-2.6l-60.9,35.1C85.2,231.6,84,235.9,85.9,239.2z"/><path fill="#9ffdff" d="M111.9,224.2l7.1,12.4c1.9,3.3,6.2,4.5,9.6,2.6l34.9-20.2c3.3-1.9,4.5-6.2,2.6-9.6l-7.1-12.4
		c-1.9-3.3-6.2-4.5-9.6-2.6l-34.9,20.1C111.1,216.6,110,220.9,111.9,224.2z"/><path fill="none" stroke="#000" stroke-linecap="round" stroke-linejoin="round" stroke-miterlimit="10" stroke-width="10" d="M164,219.9L103.1,255c-3.3,1.9-7.6,0.8-9.6-2.6l-7.1-12.4c-1.9-3.3-0.8-7.6,2.6-9.6l60.9-35.1
		c3.3-1.9,7.6-0.8,9.6,2.6l7.1,12.4C168.5,213.7,167.4,218,164,219.9z"/><line x1="133.6" x2="267.9" y1="239.5" y2="470.7" fill="none" stroke="#000" stroke-linecap="round" stroke-linejoin="round" stroke-miterlimit="10" stroke-width="10"/><line x1="237.5" x2="298.8" y1="488.2" y2="452.8" fill="none" stroke="#000" stroke-linecap="round" stroke-linejoin="round" stroke-miterlimit="10" stroke-width="10"/><line x1="105.8" x2="71.9" y1="189.3" y2="130.7" fill="none" stroke="#000" stroke-linecap="round" stroke-linejoin="round" stroke-miterlimit="10" stroke-width="10"/><path fill="#fff" d="M115.4,187.1l-16.7,9.6c-3.3,1.9-4.5,6.2-2.6,9.6l8.1,14l28.8-16.6l-8.1-14C123,186.3,118.7,185.1,115.4,187.1
		z"/><path fill="#9ffdff" d="M133,203.6l-6.6-11.4l-12.4,7.1c-3.3,1.9-4.5,6.2-2.6,9.6l3.1,5.3L133,203.6z"/><path fill="none" stroke="#000" stroke-linecap="round" stroke-linejoin="round" stroke-miterlimit="10" stroke-width="10" d="M133,203.6l-28.8,16.6l-8.1-14c-1.9-3.3-0.8-7.6,2.6-9.6l16.7-9.6c3.3-1.9,7.6-0.8,9.6,2.6L133,203.6z"/><g><path fill="#fff" d="M488.2,305.3c-1.3-2.1-1.4-4.7-0.2-6.9l31.2-54c1.8-3.1,0.7-7.1-2.4-8.9l-23-13.3l-23-13.3
		c-3.1-1.8-7.1-0.7-8.9,2.4l-31.2,54c-1.2,2.1-3.6,3.4-6,3.3c-9.1-0.4-32.8,3.1-56.6,44.4l-57.7,99.9c-3.9,6.7-1.6,15.3,5.1,19.1
		l42.9,24.8l42.9,24.8c6.7,3.9,15.3,1.6,19.1-5.1l57.7-99.9C501.9,335.2,493.1,312.9,488.2,305.3z"/><path fill="#9ffdff" d="M401.2,481.6c6.7,3.9,15.3,1.6,19.1-5.1l57.7-99.9c23.9-41.3,15-63.6,10.1-71.2c-1.3-2.1-1.4-4.7-0.2-6.9
		l23.9-41.4l-10.5-6l-23-13.3c-3.1-1.8-7.1-0.7-8.9,2.4l-25.7,44.4c-1.2,2.1-3.6,3.4-6,3.3c-9.1-0.4-32.8,3.1-56.6,44.4l-57.7,99.9
		c-0.7,1.2-1.2,2.5-1.5,3.8l36.3,21L401.2,481.6z"/><path fill="none" stroke="#000" stroke-linecap="round" stroke-linejoin="round" stroke-miterlimit="10" stroke-width="10" d="M488.2,305.3c-1.3-2.1-1.4-4.7-0.2-6.9l24.3-42.2l4.4,2.5c3.3,1.9,7.6,0.8,9.6-2.6l3.1-5.3
		c1.9-3.3,0.8-7.6-2.6-9.6l-10-5.8l-23-13.3l-23-13.3l-10-5.8c-3.3-1.9-7.6-0.8-9.6,2.6l-3.1,5.3c-1.9,3.3-0.8,7.6,2.6,9.6l4.4,2.5
		l-24.3,42.2c-1.2,2.1-3.6,3.4-6,3.3c-9.1-0.4-32.8,3.1-56.6,44.4l-57.7,99.9c-3.9,6.7-1.6,15.3,5.1,19.1l42.9,24.8l42.9,24.8
		c6.7,3.9,15.3,1.6,19.1-5.1l57.7-99.9C501.9,335.2,493.1,312.9,488.2,305.3z"/></g><g><path fill="#ffd485" d="M529.7,242.3l-71.2-41.1c-3.3-1.9-7.6-0.8-9.6,2.6l-13.1,22.7c-1.9,3.3-0.8,7.6,2.6,9.6l71.2,41.1
		c3.3,1.9,7.6,0.8,9.6-2.6l13.1-22.7C534.2,248.5,533,244.2,529.7,242.3z"/><path fill="#ffaf1c" d="M466.6,223.2c-3.3-1.9-7.6-0.8-9.6,2.6l-9.1,15.7l61.7,35.6c3.3,1.9,7.6,0.8,9.6-2.6l9.1-15.7L466.6,223.2z"/><path fill="none" stroke="#000" stroke-linecap="round" stroke-linejoin="round" stroke-miterlimit="10" stroke-width="10" d="M509.6,277.1L438.4,236c-3.3-1.9-4.5-6.2-2.6-9.6l13.1-22.7c1.9-3.3,6.2-4.5,9.6-2.6l71.2,41.1
		c3.3,1.9,4.5,6.2,2.6,9.6l-13.1,22.7C517.2,277.9,512.9,279,509.6,277.1z"/></g><g><rect width="64" height="127" x="371.5" y="315.3" fill="#ffd485" transform="rotate(-60 403.543 378.799)"/><rect width="64" height="105.8" x="380.7" y="331.2" fill="#ffaf1c" transform="rotate(-60 412.714 384.094)"/><rect width="127" height="64" x="340" y="346.8" fill="none" stroke="#000" stroke-linecap="round" stroke-linejoin="round" stroke-miterlimit="10" stroke-width="10" transform="rotate(30 403.552 378.761)"/><line x1="378" x2="429.1" y1="364" y2="393.5" fill="none" stroke="#000" stroke-linecap="round" stroke-linejoin="round" stroke-miterlimit="10" stroke-width="10"/></g><g><circle cx="301.4" cy="156.6" r="47" fill="#ffaf1c" stroke="#000" stroke-linecap="round" stroke-linejoin="round" stroke-miterlimit="10" stroke-width="10"/><line x1="323.3" x2="298" y1="144.4" y2="169.7" fill="none" stroke="#000" stroke-linecap="round" stroke-linejoin="round" stroke-miterlimit="10" stroke-width="10"/><line x1="283" x2="298.3" y1="154.4" y2="169.7" fill="none" stroke="#000" stroke-linecap="round" stroke-linejoin="round" stroke-miterlimit="10" stroke-width="10"/></g></svg>