<svg xmlns="http://www.w3.org/2000/svg" width="24" height="24" viewBox="0 0 24 24"><path fill="none" d="M0,0H24V24H0Z" data-name="Path 3674"/><path fill="#525863" d="M-226.472-148.87H-234.4l-5.6-5.6V-162.4l5.6-5.6h7.924l5.6,5.6v7.925l-5.6,5.6ZM-238.085-161.6v6.334l4.482,4.486h6.34l4.481-4.486V-161.6l-4.481-4.486h-6.34Zm6.35,7.539a1.351,1.351,0,0,1,1.335-1.367,1.352,1.352,0,0,1,1.335,1.367A1.349,1.349,0,0,1-230.4-152.7,1.348,1.348,0,0,1-231.735-154.065Zm-.016-3.9v-4.8a1.35,1.35,0,0,1,1.351-1.351,1.349,1.349,0,0,1,1.351,1.351v4.8a1.35,1.35,0,0,1-1.351,1.351A1.351,1.351,0,0,1-231.751-157.967Z" data-name="Path 3540" transform="translate(242.4 170.4)"/></svg>