<svg xmlns="http://www.w3.org/2000/svg" data-name="Layer 1" viewBox="0 0 168 168"><path fill="#2d4356" d="M81.71136 81.80469a3.97417 3.97417 0 0 0-.88568-4.25928A6.415 6.415 0 0 0 76.9707 76a2.88305 2.88305 0 0 0-.96783.15326c-1.21576.43365-1.6377 1.81842-1.852 3.001-.22461 1.24951-.335 2.72272.68262 3.66107A4.66539 4.66539 0 0 0 77.98389 84 3.99892 3.99892 0 0 0 81.71136 81.80469zm-1.80756-.855A2.0929 2.0929 0 0 1 77.98389 82a2.6925 2.6925 0 0 1-1.79437-.6543c-.1568-.14453-.2959-.58112-.0708-1.835.24066-1.32611.55316-1.4726.5556-1.47357A.91906.91906 0 0 1 76.9707 78 4.454 4.454 0 0 1 79.457 79.00391 2.01969 2.01969 0 0 1 79.90381 80.94971zM91.99707 76.15326A2.87848 2.87848 0 0 0 91.0293 76a6.40935 6.40935 0 0 0-3.85352 1.54541A3.72334 3.72334 0 0 0 90.0166 84 4.6645 4.6645 0 0 0 93.167 82.81537c1.01758-.93835.90619-2.41156.68158-3.66107C93.63477 77.97168 93.21387 76.58691 91.99707 76.15326zm-.1875 5.1944A2.69364 2.69364 0 0 1 90.0166 82a2.09248 2.09248 0 0 1-1.91992-1.05029 2.01481 2.01481 0 0 1 .44635-1.94434A4.44857 4.44857 0 0 1 91.0293 78a.9261.9261 0 0 1 .29688.03711c.00293.00146.31439.147.55371 1.47119C92.10638 80.76556 91.96777 81.20117 91.80957 81.34766zM84.05078 85.042c-.94342 0-2.21576.49121-2.92236 2.832-.67725 2.2403-.69385 3.335-.06494 4.18262A2.08369 2.08369 0 0 0 82.75 92.9082a2.17437 2.17437 0 0 0 1.23438-.39062 2.14558 2.14558 0 0 0 1.31152.45123 2.07676 2.07676 0 0 0 1.66309-.82623c.62689-.82129.6308-1.91211.0127-4.16992C86.27441 85.42291 84.84229 85.043 84.05078 85.042zm1.24512 5.92682c-.06543 0-.15533-.06842-.26862-.21393a1.24576 1.24576 0 0 0-2-.04791c-.1167.1358-.20886.20123-.27728.20123-.26068 0-.16211-.9502.293-2.45612.28406-.94043.64838-1.4101 1.00726-1.4101.36621 0 .727.4873.99274 1.458C85.458 90.0166 85.541 90.96881 85.2959 90.96881zM41.5127 66.25391a22.13408 22.13408 0 0 1-5.63281-21.97662 1.00015 1.00015 0 0 0-1.92187-.55463 24.1301 24.1301 0 0 0 6.1524 23.957l9.18835 9.0332a.99995.99995 0 1 0 1.4024-1.42578zM123.35638 99.332L111.65332 89.24219a1.0006 1.0006 0 0 0-1.41113.10449.984.984 0 0 0-.2149.51563 7.677 7.677 0 0 1 2.42969 1.06061 7.98619 7.98619 0 0 1 3.21594 4.4267l6.3847 5.50385c6.626 5.59381 9.22845 13.02051 7.3291 20.91211a1.002 1.002 0 0 0 .73828 1.20709 1.03125 1.03125 0 0 0 .23541.02734 1.00072 1.00072 0 0 0 .97156-.76562C133.417 113.56738 130.582 105.43158 123.35638 99.332z"/><path fill="#2d4356" d="M111.33978 92.58105a5.90077 5.90077 0 0 0-7.62592.86133l-5.7998-3.90918c.0166-.05273.04-.09961.05371-.1543a8.09832 8.09832 0 0 0-.3653-3.32031 5.38127 5.38127 0 0 1 .57434-3.24951l5.84857-3.94342a5.89749 5.89749 0 0 0 7.31439.55475 6.03965 6.03965 0 0 0 1.669-8.3183 5.881 5.881 0 0 0-3.31061-2.42682 5.98753 5.98753 0 0 0-.9472-4.02051 5.90384 5.90384 0 0 0-8.24121-1.6377 6.00837 6.00837 0 0 0-2.63275 4.96c-4.1778-5.9527-13.07434-5.96344-13.10944-5.96344-.30078-.00879-.59717-.01318-.88721-.01318C76.11908 62 72.15668 65.084 70.12787 68.26855a6.024 6.024 0 0 0-2.6377-5.25146 5.90485 5.90485 0 0 0-8.2431 1.6377 5.98512 5.98512 0 0 0-.9444 4.02051 5.86828 5.86828 0 0 0-3.31146 2.42682 6.03921 6.03921 0 0 0 1.66986 8.3183 5.89691 5.89691 0 0 0 7.31451-.55524l5.87689 3.9624a4.75165 4.75165 0 0 1 .04791 3.44 3.5087 3.5087 0 0 0 .25677 3.2168l-5.87006 3.958a5.90094 5.90094 0 0 0-7.626-.86133 6.03873 6.03873 0 0 0-1.66888 8.31836 5.87451 5.87451 0 0 0 3.31049 2.42578 6.0051 6.0051 0 0 0 .9444 4.02148 5.90684 5.90684 0 0 0 8.2431 1.63672 6.04609 6.04609 0 0 0 2.30286-7.03912L74.5957 98.707a14.49639 14.49639 0 0 1-.32568 2.8623 2.889 2.889 0 0 0 .04688 1.45612c.62347 1.56439 2.64209 5.18158 8.20459 5.87207A11.81263 11.81263 0 0 0 83.94379 109a6.60622 6.60622 0 0 0 .74573-.041c5.58386-.36432 7.76556-3.85937 8.455-5.38379a2.89165 2.89165 0 0 0 .11041-1.45123 16.206 16.206 0 0 1-.18646-3.64447l5.13855 3.46478a6.04474 6.04474 0 0 0 2.3028 7.03912 5.9046 5.9046 0 0 0 8.24121-1.63672 6.00147 6.00147 0 0 0 .9472-4.02148 5.88206 5.88206 0 0 0 3.30963-2.42578A6.0393 6.0393 0 0 0 111.33978 92.58105zM99.96191 76.47711a15.49174 15.49174 0 0 0-.32135-4.45764l1.23932-.83539-.68066-1.53271a4.024 4.024 0 0 1 1.4278-4.97559 3.90456 3.90456 0 0 1 5.456 1.082 3.96588 3.96588 0 0 1 .62891 2.683l-.19922 1.692 1.63867.46625a3.90961 3.90961 0 0 1 2.18842 1.60455 4.04148 4.04148 0 0 1-1.1181 5.55859 3.898 3.898 0 0 1-4.83691-.36334l-1.16309-1.07806-1.31451.88666-3.54388 2.38922A24.84919 24.84919 0 0 0 99.96191 76.47711zm-34.8681.72986l-1.315-.88617-1.1626 1.07758a3.89675 3.89675 0 0 1-4.8374.36328 4.04086 4.04086 0 0 1-1.11719-5.55957 3.88727 3.88727 0 0 1 2.18646-1.60248l1.64313-.46582-.20264-1.6958a4.00921 4.00921 0 0 1 .62744-2.68073 3.905 3.905 0 0 1 5.45557-1.08246 4.02725 4.02725 0 0 1 1.4292 4.97748l-.68018 1.53229 1.34131.90381A12.70586 12.70586 0 0 0 68 75.186a19.15175 19.15175 0 0 0 .70068 4.45319zm3.581 23.0791l-1.28864.8692.524 1.46289a4.033 4.033 0 0 1-1.53723 4.706 3.90581 3.90581 0 0 1-5.455-1.07709 4.03006 4.03006 0 0 1-.62946-2.68658l.20111-1.69232-1.63959-.4668a3.84814 3.84814 0 0 1-2.189-1.60449 4.03773 4.03773 0 0 1 1.11823-5.55762 3.90042 3.90042 0 0 1 5.04492.56732l1.16455 1.24908 1.4165-.95508 6.22461-4.19629 2.11621.917a30.50388 30.50388 0 0 1 .77289 4.52539zm22.61328 2.19934a1.40485 1.40485 0 0 1 0 .33978c-.25781 1.76947-2.62109 3.11816-4.09467 3.624a10.12316 10.12316 0 0 1-6.26373.17786 8.54941 8.54941 0 0 1-3.15088-1.85455c-.50391-.47949-1.74072-1.97455-1.55859-2.75879a21.47675 21.47675 0 0 0 .0202-7.96033 10.5993 10.5993 0 0 1 1.11206 4.35486c.07959 1.32806-.41986 3.28809.979 4.12891a11.45468 11.45468 0 0 0 5.6626 1.46 11.23513 11.23513 0 0 0 5.2832-1.30756 2.48813 2.48813 0 0 0 1.1123-1.69153 6.42735 6.42735 0 0 0-.03711-1.4931 8.44218 8.44218 0 0 1 .63379-4.62787l.60352-.69543A24.001 24.001 0 0 0 91.28809 102.48541zM79.335 98.2041a2.16025 2.16025 0 0 0 .22986.02637l1.52692.04492-.08008 3.25287a8.93349 8.93349 0 0 1-1.5874-.66986c-.0249-.043-.05084-.10944-.05524-.11823A21.56665 21.56665 0 0 0 79.335 98.2041zm3.66644 3.74609l.08881-3.61621 1.89941.05469-.0874 3.56738A9.40721 9.40721 0 0 1 83.00146 101.9502zm5.34131-1.0293h.001a9.55861 9.55861 0 0 1-1.42975.60547l.07526-3.0791 1.08875.03223.03815.001h.03516c.04785 0 .084-.01471.12994-.0166.01746.43652.04675.85742.08 1.22162a7.27521 7.27521 0 0 1 .05371.99323C88.39941 100.75781 88.31927 100.9209 88.34277 100.9209zm-.15729-4.94824l-9.1582-.2666c-.5932-1.95319-1.37787-3.81055-2.79492-4.83008a10.29054 10.29054 0 0 0-2.33588-1.14752 6.55644 6.55644 0 0 1-1.563-.74707 1.62535 1.62535 0 0 1-.57623-1.9707c.98645-2.46478.14362-4.5459-.53314-6.21869-.18164-.44873-.35352-.87262-.48535-1.28369A16.75721 16.75721 0 0 1 70 75.14307a11.79211 11.79211 0 0 1 3.16461-7.50391c2.38367-2.41455 5.9892-3.63867 10.71576-3.63867q.40649 0 .8291.01221l.02985.001h.02527c.06842 0 6.89172.0722 10.67969 4.124 1.88092 2.01221 2.73053 4.75586 2.52539 8.15576a22.41194 22.41194 0 0 1-.72455 3.5459 12.01624 12.01624 0 0 1-.63184 1.56293 8.05008 8.05008 0 0 0-.97852 5.0127c.05272.292.122.5918.19232.89551a4.39308 4.39308 0 0 1 .20123 1.58209c-.13385.5293-.68262.93939-1.6347 1.2168l-.0332.0097-.03424.01178C94.11908 90.19916 89.55859 91.75586 88.18549 95.97266zm23.15338 3.82422a3.84831 3.84831 0 0 1-2.18848 1.60449l-1.63672.4668.19824 1.69043a4.02789 4.02789 0 0 1-.62994 2.68646 3.905 3.905 0 0 1-5.4541 1.08014 4.03344 4.03344 0 0 1-1.53809-4.707l.52454-1.46289-1.28912-.8692-6.03809-4.07129a37.82494 37.82494 0 0 1 .71967-3.77338 8.12121 8.12121 0 0 1 .9483-.41211 5.54187 5.54187 0 0 0 1.79694-.86823l5.84369 3.93951 1.417.95508 1.16412-1.25a3.90107 3.90107 0 0 1 5.0459-.56549A4.03685 4.03685 0 0 1 111.33887 99.79688zM158 13.5a2 2 0 1 0-2 2A2.00229 2.00229 0 0 0 158 13.5zm-3 0a1 1 0 1 1 1 1A1.001 1.001 0 0 1 155 13.5zM53 16.5a2 2 0 1 0-2-2A2.00229 2.00229 0 0 0 53 16.5zm0-3a1 1 0 1 1-1 1A1.001 1.001 0 0 1 53 13.5zM123.23694 31.4859a2 2 0 1 0-2.22284-1.749A2.0023 2.0023 0 0 0 123.23694 31.4859zm-.35541-2.97888a1 1 0 1 1-.87451 1.11145A1.00105 1.00105 0 0 1 122.88153 28.507zM86 32.5a3 3 0 1 0-3-3A3.00344 3.00344 0 0 0 86 32.5zM86 28a1.5 1.5 0 1 1-1.5 1.5A1.50148 1.50148 0 0 1 86 28zM24 33.5a2 2 0 1 0-2-2A2.00229 2.00229 0 0 0 24 33.5zm0-3a1 1 0 1 1-1 1A1.001 1.001 0 0 1 24 30.5z"/><path fill="#2d4356" d="M152 142H123.8064a28.12337 28.12337 0 0 0 10.28149-7.14362l.20313-.2226a29.85545 29.85545 0 0 0 1.34766-38.43652A33.98438 33.98438 0 1 0 87.3584 48.89746L69.95117 31.97266A27.73323 27.73323 0 0 0 29.9126 33.14258l-.2041.22363A29.82145 29.82145 0 0 0 30.90137 74.627l6.10931 5.94037A33.98972 33.98972 0 0 0 42.49628 142H16a1 1 0 0 0 0 2H152a1 1 0 0 0 0-2zm-86.49921 0a34.13766 34.13766 0 0 0 18.39227-15.84772l10.15485 9.87408A28.20524 28.20524 0 0 0 103.18774 142zm29.94159-7.40723L69.78711 109.64746a9.14316 9.14316 0 0 1-.749.666l-.00488-.00488c-.14209.11029-.27344.23138-.42432.333-.13531.09076-.28131.1582-.4209.24017h.00049c-.06976.03809-.13721.08014-.2066.11823h.3277l14.08691 13.69727A31.97564 31.97564 0 0 1 22.02539 111H60.33588a7.89322 7.89322 0 0 1-2.34216-2H22.03558A31.99687 31.99687 0 0 1 38.51807 82.03271L52.30518 95.43848a8.05779 8.05779 0 0 1 .84271-1.96967L32.29541 73.19287a27.84208 27.84208 0 0 1-1.10992-38.47852l.20221-.22119a25.73341 25.73341 0 0 1 37.16937-1.08649L98.2666 62.29346a8.06895 8.06895 0 0 1 1.125-.93457c.1582-.10687.3291-.1875.49316-.2818L88.81348 50.3125A31.96553 31.96553 0 0 1 145.97461 69H113.87787a7.84524 7.84524 0 0 1 .7998 1 7.94491 7.94491 0 0 1 .55084 1H145.9707a31.92742 31.92742 0 0 1-11.63281 23.66107c-.39838-.43842-.80859-.87109-1.23828-1.289L115.71777 76.47119a8.08846 8.08846 0 0 1-.8233 1.9892l16.81061 16.34528a27.84672 27.84672 0 0 1 1.1084 38.48041l-.20117.21979a25.73237 25.73237 0 0 1-37.16992 1.08691zM11 142H6a1 1 0 0 0 0 2h5a1 1 0 0 0 0-2z"/><circle cx="1" cy="143" r="1" fill="#2d4356"/><path fill="#2d4356" d="M162,142h-5a1,1,0,0,0,0,2h5a1,1,0,0,0,0-2Z"/><circle cx="167" cy="143" r="1" fill="#2d4356"/><circle cx="53" cy="79" r="1.001" fill="#0bceb2" transform="rotate(-47.038 53 79)"/><circle cx="108" cy="87" r="1" fill="#0bceb2" transform="rotate(-50.131 108 87)"/><polygon fill="#0bceb2" points="7.583 49.511 9.07 47.556 8.131 47.024 7.177 49.214 7.145 49.214 6.175 47.039 5.22 47.587 6.691 49.496 6.691 49.527 4.391 49.23 4.391 50.294 6.707 49.997 6.707 50.028 5.22 51.936 6.112 52.5 7.13 50.294 7.16 50.294 8.099 52.484 9.085 51.921 7.583 50.043 7.583 50.012 9.945 50.294 9.945 49.23 7.583 49.542 7.583 49.511"/><polygon fill="#0bceb2" points="22.281 9.269 23.137 8.143 22.597 7.837 22.047 9.098 22.029 9.098 21.471 7.845 20.92 8.161 21.768 9.26 21.768 9.278 20.443 9.107 20.443 9.72 21.777 9.549 21.777 9.567 20.92 10.666 21.434 10.99 22.02 9.72 22.038 9.72 22.578 10.981 23.146 10.657 22.281 9.575 22.281 9.557 23.641 9.72 23.641 9.107 22.281 9.287 22.281 9.269"/><polygon fill="#0bceb2" points="162 43.022 162 42.362 160.534 42.556 160.534 42.536 161.457 41.322 160.874 40.992 160.281 42.352 160.262 42.352 159.66 41.002 159.067 41.342 159.98 42.527 159.98 42.546 158.552 42.362 158.552 43.022 159.99 42.838 159.99 42.857 159.067 44.042 159.62 44.392 160.252 43.022 160.271 43.022 160.854 44.382 161.466 44.032 160.534 42.867 160.534 42.847 162 43.022"/><polygon fill="#0bceb2" points="118.443 6.086 119.701 4.431 118.907 3.981 118.099 5.834 118.073 5.834 117.252 3.994 116.444 4.458 117.689 6.073 117.689 6.099 115.742 5.848 115.742 6.748 117.702 6.496 117.702 6.523 116.444 8.138 117.198 8.615 118.06 6.748 118.085 6.748 118.88 8.601 119.714 8.125 118.443 6.536 118.443 6.509 120.442 6.748 120.442 5.848 118.443 6.112 118.443 6.086"/><path fill="#0bceb2" d="M105 148H63a1 1 0 0 0 0 2H81v2H71a1 1 0 0 0 0 2H98a1 1 0 0 0 0-2H87v-2h18a1 1 0 0 0 0-2zM119 148H109a1 1 0 0 0 0 2h10a1 1 0 0 0 0-2zM59 148H49a1 1 0 0 0 0 2H59a1 1 0 0 0 0-2z"/></svg>