<svg xmlns="http://www.w3.org/2000/svg" viewBox="0 0 512 512"><path d="M280.387 454.648v19.6a9.86 9.86 0 0 0 19.72 0V454.494a158 158 0 0 0 68.161-20.85 9.86 9.86 0 0 0-9.835-17.093A138.461 138.461 0 0 1 297.9 434.889a136.64 136.64 0 0 1-19.513-.107A115.243 115.243 0 0 1 195.4 388.969a9.859 9.859 0 0 0-14.134-1.7l-23.623 19.378a9.86 9.86 0 0 0 12.506 15.246l15.969-13.1a134.809 134.809 0 0 0 90.729 45.646C278.019 454.533 279.206 454.583 280.387 454.648zM306.941 109.239a9.861 9.861 0 0 0 13.754 6.883 73.629 73.629 0 0 1 62.978.427q1.259.607 2.511 1.258c24.182 12.558 40.987 36.647 44.952 64.439 3.13 21.944 6.71 58.676 3.365 97.555-.013.116-.019.235-.028.353a282.381 282.381 0 0 1-7.641 45.977 147.4 147.4 0 0 1-40.33 69.291 9.86 9.86 0 0 0 .314 14.484l26.158 23.126a9.86 9.86 0 0 0 13.062-14.773L407.62 401.976a167.317 167.317 0 0 0 38.305-70.911 292.119 292.119 0 0 0 7.281-40.293h22.14a9.86 9.86 0 1 0 0-19.72H454.88c2.125-36.853-1.237-70.666-4.222-91.592a107.356 107.356 0 0 0-26.207-56.472l16.821-17.936a9.86 9.86 0 0 0-14.384-13.49l-16.934 18.056a101.829 101.829 0 0 0-14.681-9.311q-1.509-.784-3.024-1.516A93.024 93.024 0 0 0 323.8 93.842l-4.266-19.8A9.86 9.86 0 1 0 300.253 78.2zM136.812 262.714a9.86 9.86 0 0 0 3.943 13.375l17.063 9.293a99.022 99.022 0 0 0-4.916 24.732 133.079 133.079 0 0 0 6.084 50.936 9.86 9.86 0 0 0 18.767-6.057 113.438 113.438 0 0 1-5.185-43.422 74.31 74.31 0 0 1 6.512-26.317c.142-.289 14.661-29.215 52.531-48.136a79.819 79.819 0 0 0 25.739-20.4c.033-.038.07-.071.1-.11s.05-.07.078-.1a78.772 78.772 0 0 0 15.96-32.121A222.876 222.876 0 0 1 281.1 158.99a75.638 75.638 0 0 1 12.034-21.382 9.86 9.86 0 1 0-15.386-12.336 95.369 95.369 0 0 0-15.168 26.942 242.766 242.766 0 0 0-8.286 27.651 59.051 59.051 0 0 1-6.382 16.043l-17.706-14.663a9.86 9.86 0 1 0-12.578 15.188L235.337 211.1a60.514 60.514 0 0 1-12.539 8.379c-30.622 15.3-48.107 36.429-56.115 48.278l-16.5-8.984A9.86 9.86 0 0 0 136.812 262.714zM185.746 109.4a40.753 40.753 0 1 0-40.752-40.753A40.8 40.8 0 0 0 185.746 109.4zm0-61.786a21.033 21.033 0 1 1-21.032 21.033A21.057 21.057 0 0 1 185.746 47.612zM78.635 215.467a51.862 51.862 0 0 0 15.446-2.342A9.861 9.861 0 0 0 88.213 194.3a32.126 32.126 0 1 1 17.063-48.623 9.86 9.86 0 1 0 16.341-11.039 51.843 51.843 0 1 0-42.982 80.832z"/><path d="M128 182.5a51.793 51.793 0 0 0 1.424-5.434 9.86 9.86 0 0 0-19.321-3.948 31.766 31.766 0 0 1-.878 3.349A9.86 9.86 0 1 0 128 182.5zM79.226 317.246A10.668 10.668 0 0 0 78 315.739a9.86 9.86 0 0 0-13.944 0 8.97 8.97 0 0 0-1.226 1.507 9.424 9.424 0 0 0-.915 1.7 10.357 10.357 0 0 0-.564 1.845 9.911 9.911 0 0 0 2.7 8.889 8.787 8.787 0 0 0 1.493 1.225 9.991 9.991 0 0 0 1.7.916 10.412 10.412 0 0 0 1.845.563 9.774 9.774 0 0 0 8.9-2.7 10.5 10.5 0 0 0 1.226-1.494 9.811 9.811 0 0 0 .9-1.7 9.283 9.283 0 0 0 .564-1.845 9.484 9.484 0 0 0 0-3.846 10.18 10.18 0 0 0-1.465-3.549zM256.214 303.21a22.569 22.569 0 0 1 21.944-5.2l.485.154A9.86 9.86 0 0 0 284.7 279.4l-.661-.21a42.331 42.331 0 0 0-41.227 9.562A96.539 96.539 0 0 0 217.2 328.712a41.837 41.837 0 0 0 10.473 43.582c9.679 9.184 22.5 13.592 31.547 15.671a43.682 43.682 0 0 0 9.8 1.122 40.39 40.39 0 0 0 20.264-5.351A46.613 46.613 0 0 0 306.7 366.168a9.86 9.86 0 0 0-17.144-9.746 26.771 26.771 0 0 1-10.132 10.237 21.724 21.724 0 0 1-15.783 2.087c-6.654-1.529-15.94-4.636-22.389-10.757a22.056 22.056 0 0 1-5.35-23.007A76.74 76.74 0 0 1 256.214 303.21z"/><path d="M294.983 319.5a13.175 13.175 0 0 0-.527 5.643 9.861 9.861 0 0 0 9.805 8.934c.31 0 .624-.015.938-.044a9.867 9.867 0 0 0 8.791-8.13 12.266 12.266 0 0 0 .335-6.1 9.85 9.85 0 0 0-19.342-.3zM413.744 287.175a39.231 39.231 0 1 0-39.23 39.23A39.275 39.275 0 0 0 413.744 287.175zm-39.23 19.51a19.511 19.511 0 1 1 19.51-19.51A19.532 19.532 0 0 1 374.514 306.685zM382.911 167.292c-5.3-9.188-14.288-15.423-25.3-17.557a45.568 45.568 0 0 0-31.386 5.57c-20.579 11.882-28.635 36.591-17.96 55.082 6.835 11.839 19.717 18.3 33.5 18.3a46.412 46.412 0 0 0 23.18-6.316C385.53 210.492 393.587 185.783 382.911 167.292zm-27.82 38c-11.162 6.443-24.5 4.3-29.744-4.769s-.42-21.7 10.742-28.144a26.8 26.8 0 0 1 13.349-3.709 23.255 23.255 0 0 1 4.424.42 17.206 17.206 0 0 1 11.972 8.058C371.073 186.226 366.253 198.851 355.091 205.3z"/></svg>