<svg xmlns="http://www.w3.org/2000/svg" width="60" height="60" viewBox="0 0 60 60"><g fill="#1B1A19" fill-rule="evenodd"><path d="M59.707 17.293l-7-7a.999.999 0 10-1.414 1.414l2.793 2.793-3.586 3.586-4.793-4.793a.999.999 0 10-1.414 1.414L45.586 16 32.293 29.293a.999.999 0 000 1.414L35.586 34 32 37.586l-2.293-2.293C28.38 33.965 25.979 33 24 33H7c-4.056 0-7 2.944-7 7v19a1 1 0 102 0V40c0-2.944 2.056-5 5-5h17c1.451 0 3.336.75 4.293 1.707l10 10a.999.999 0 001.414 0l9-9c1.35-1.35 3.236-1.35 4.586 0 .286.286 2.743 2.844 1 4.586L39 57.586 27.707 46.293A.998.998 0 0026 47v12a1 1 0 102 0v-9.586l10.293 10.293a.997.997 0 001.414 0l16-16c1.042-1.043 1.423-2.44 1.072-3.936-.278-1.185-1.014-2.42-2.072-3.478-2.148-2.147-5.266-2.147-7.414 0L39 44.586 33.414 39 37 35.414l3.293 3.293a.997.997 0 001.414 0L55 25.414l1.293 1.293a.997.997 0 001.414 0 .999.999 0 000-1.414L51.914 19.5l3.586-3.586 2.793 2.793a.997.997 0 001.414 0 .999.999 0 000-1.414zM49 28.586l-3.293-3.293a.999.999 0 10-1.414 1.414L47.586 30 45 32.586l-3.293-3.293a.999.999 0 10-1.414 1.414L43.586 34 41 36.586 34.414 30 47 17.414 53.586 24 49 28.586zM6.293 14.707a.997.997 0 001.414 0L9.5 12.914l1.793 1.793a.997.997 0 001.414 0 .999.999 0 000-1.414L10.914 11.5l1.793-1.793a.999.999 0 10-1.414-1.414L9.5 10.086 7.707 8.293a.999.999 0 10-1.414 1.414L8.086 11.5l-1.793 1.793a.999.999 0 000 1.414M17.293 14.707a.997.997 0 001.414 0l1.793-1.793 1.793 1.793a.997.997 0 001.414 0 .999.999 0 000-1.414L21.914 11.5l1.793-1.793a.999.999 0 10-1.414-1.414L20.5 10.086l-1.793-1.793a.999.999 0 10-1.414 1.414l1.793 1.793-1.793 1.793a.999.999 0 000 1.414"/><path d="M15 30c8.271 0 15-6.729 15-15S23.271 0 15 0 0 6.729 0 15s6.729 15 15 15zm0-28c7.168 0 13 5.832 13 13s-5.832 13-13 13C7.831 28 2 22.168 2 15S7.831 2 15 2z"/><path d="M7 19h1v2c0 2.757 2.243 5 5 5s5-2.243 5-5v-2h4a1 1 0 1 0 0-2H7a1 1 0 1 0 0 2zm6 3a1 1 0 0 0 1-1v-2h2v2c0 1.654-1.346 3-3 3s-3-1.346-3-3v-2h2v2a1 1 0 0 0 1 1z"/></g></svg>