<svg xmlns="http://www.w3.org/2000/svg" width="32" height="32" viewBox="0 0 32 32"><g transform="translate(198.5 -1169.046)"><g transform="rotate(-30 179.575 1474.334)"><circle cx="7.5" cy="16.5" r="4.5" fill="#a0e06e" stroke="#373449" stroke-linecap="round" stroke-linejoin="round" transform="translate(.5 1015.862)"/><path fill="none" stroke="#373449" stroke-linecap="round" stroke-linejoin="round" d="m 4,12 8,0" transform="translate(0 1020.362)"/></g><g transform="translate(-199 147)"><rect width="6" height="15" x="743.536" y="709.338" fill="#ffdc7b" stroke="#373449" stroke-linecap="round" stroke-linejoin="round" rx="3" ry="3" transform="rotate(45)"/><path fill="none" stroke="#373449" stroke-linecap="round" stroke-linejoin="round" d="m 18.807802,1032.7115 4.24264,4.2427"/></g><g transform="rotate(135 -112.444 1078.755)"><circle cx="7.5" cy="16.5" r="4.5" fill="#cdd7e0" stroke="#373449" stroke-linecap="round" stroke-linejoin="round" stroke-width="1.286" transform="translate(4.167 1030.529) scale(.77778)"/><path fill="none" stroke="#373449" stroke-linecap="round" stroke-linejoin="round" d="m 7,23 6,0" transform="translate(0 1020.362)"/></g><g fill="#ff5855" transform="rotate(-90 -5.514 1217.562)"><rect width="6" height="15" x="743.536" y="709.338" stroke="#373449" stroke-linecap="round" stroke-linejoin="round" rx="3" ry="3" transform="rotate(45)"/><path stroke="#373449" stroke-linecap="round" stroke-linejoin="round" d="m 18.807802,1032.7115 4.24264,4.2427"/></g></g></svg>