<svg xmlns="http://www.w3.org/2000/svg" enable-background="new 0 0 24 24" viewBox="0 0 24 24"><path fill="#303c42" d="M17.944,11.143C17.641,9.974,16.159,7.5,15,7.5c-0.144,0-0.318,0.031-0.505,0.075   C14.472,5.871,14.276,4.084,13,2.334V0.5C13,0.224,12.776,0,12.5,0H11c-0.215,0-0.406,0.138-0.474,0.342l-0.245,0.732L9.354,0.146   c-0.195-0.195-0.512-0.195-0.707,0l-1,1c-0.195,0.195-0.195,0.512,0,0.707C7.941,2.148,8.048,2.522,8.041,3H6   C5.299,3,4.796,3.166,4.463,3.506C3.961,4.019,3.977,4.762,3.994,5.55L4,6c0,0.919,0.205,1.728,0.363,2.217   C3.11,9.138,3,12.774,3,14c0,0.994,0.304,2.345,1,3.699V22.5c0,0.055,0.009,0.11,0.027,0.163C4.046,22.717,4.504,24,6,24   s1.954-1.283,1.973-1.337C7.991,22.61,8,22.555,8,22.5v-0.761C9.45,22.503,11.253,23,13.5,23c0.146,0,0.503,0.128,0.848,0.253   C15.175,23.55,16.424,24,18,24c3,0,3-3.468,3-6C21,14.561,19.864,12.029,17.944,11.143z M10.779,7.726   c-0.022-0.057-0.045-0.112-0.067-0.166C10.599,7.282,10.5,7.042,10.5,6.5c0-1.5,0.289-1.5,0.419-1.522   c0.041,0.033,0.198,0.274,0.23,0.858C11.177,6.361,11.083,7.071,10.779,7.726z"/><path fill="#d32f2f" d="M16.866 11.027C14.237 11.245 14 12.853 14 14.5c0 .791-.208 1.329-.448 1.952C13.293 17.123 13 17.882 13 19v2.975c-3.929-.142-6.219-1.885-7.5-3.757V18c0-1.376 1.146-2.823 2.254-4.222 1.033-1.304 2.008-2.544 2.204-3.823 1.074-.109 2.306-.548 3.328-.927.7-.26 1.423-.528 1.712-.528C15.44 8.534 16.503 10.121 16.866 11.027zM8.67 1.537L9 1.207l1.146 1.146c.123.123.299.173.468.133.169-.04.305-.164.359-.329L11.36 1H12v1.5c0 .109.036.216.103.303 1.263 1.656 1.391 3.349 1.396 5.082-.178.064-.362.132-.559.205-.473.176-.997.364-1.518.528.829-1.329.877-2.991.516-3.862C11.655 4.074 11.188 4 11 4 9.5 4 9.5 5.688 9.5 6.5c0 .739.153 1.111.288 1.44.109.267.203.506.21 1.007C9.828 8.969 9.653 9 9.5 9 8.908 9 8.46 8.886 8.015 8.73c.04-1.179.32-2.301.579-3.297C8.991 3.91 9.339 2.57 8.67 1.537z"/><path fill="#e53935" d="M5.177 4.206C5.311 4.069 5.588 4 6 4h1.912C7.839 4.351 7.741 4.741 7.627 5.181 7.378 6.137 7.114 7.206 7.035 8.363c-.467-.165-1.012-.3-1.681-.34C5.22 7.634 5 6.871 5 6c0-.161-.003-.318-.006-.472C4.981 4.933 4.97 4.417 5.177 4.206zM5 9c.928 0 1.533.234 2.174.482.524.203 1.07.405 1.768.481-.22.978-1.072 2.058-1.971 3.193-.925 1.168-1.87 2.366-2.27 3.632C4.183 15.619 4 14.557 4 14 4 10.898 4.647 9 5 9zM7 22.398C6.915 22.573 6.641 23 6 23c-.644 0-.917-.431-1-.601v-3.148c.539.684 1.2 1.326 2 1.883V22.398zM18 23c-1.401 0-2.506-.398-3.313-.688-.264-.095-.486-.172-.687-.228V19c0-.932.235-1.542.485-2.188C14.738 16.156 15 15.477 15 14.5c0-1.67.249-2.468 2.397-2.495C19.027 12.658 20 14.885 20 18 20 21.316 19.691 23 18 23z"/><path d="M5.56 17.452C5.522 17.635 5.5 17.818 5.5 18v.217c1.281 1.872 3.571 3.615 7.5 3.757V21.13C9.127 20.991 6.851 19.293 5.56 17.452zM14 13.656c0 .791-.208 1.329-.448 1.952C13.293 16.279 13 17.039 13 18.156V19c0-1.118.293-1.877.552-2.548C13.792 15.829 14 15.291 14 14.5c0-1.647.237-3.255 2.866-3.473-.092-.229-.228-.501-.388-.78C14.238 10.594 14 12.1 14 13.656zM6.971 12.313c-.925 1.168-1.87 2.366-2.27 3.632-.461-1.042-.647-1.977-.685-2.567C4.01 13.584 4 13.782 4 14c0 .557.183 1.619.701 2.789.4-1.266 1.345-2.465 2.27-3.632.899-1.135 1.752-2.216 1.971-3.193-.105-.011-.2-.031-.298-.047C8.266 10.673 7.632 11.478 6.971 12.313zM18 22.156c-1.401 0-2.506-.398-3.313-.688-.264-.095-.486-.172-.687-.228v.844c.201.056.423.133.687.228C15.494 22.602 16.599 23 18 23c1.691 0 2-1.684 2-5 0-.077-.008-.146-.009-.221C19.948 20.671 19.578 22.156 18 22.156z" enable-background="new" opacity=".1"/><linearGradient id="a" x1="1.956" x2="22.404" y1="15.309" y2="5.774" gradientTransform="matrix(1 0 0 -1 0 24)" gradientUnits="userSpaceOnUse"><stop offset="0" stop-color="#fff" stop-opacity=".2"/><stop offset="1" stop-color="#fff" stop-opacity="0"/></linearGradient><path fill="url(#a)" d="M17.944,11.143C17.641,9.974,16.159,7.5,15,7.5c-0.144,0-0.318,0.031-0.505,0.075   C14.472,5.871,14.276,4.084,13,2.334V0.5C13,0.224,12.776,0,12.5,0H11c-0.215,0-0.406,0.138-0.474,0.342l-0.245,0.732L9.354,0.146   c-0.195-0.195-0.512-0.195-0.707,0l-1,1c-0.195,0.195-0.195,0.512,0,0.707C7.941,2.148,8.048,2.522,8.041,3H6   C5.299,3,4.796,3.166,4.463,3.506C3.961,4.019,3.977,4.762,3.994,5.55L4,6c0,0.919,0.205,1.728,0.363,2.217   C3.11,9.138,3,12.774,3,14c0,0.994,0.304,2.345,1,3.699V22.5c0,0.055,0.009,0.11,0.027,0.163C4.046,22.717,4.504,24,6,24   s1.954-1.283,1.973-1.337C7.991,22.61,8,22.555,8,22.5v-0.761C9.45,22.503,11.253,23,13.5,23c0.146,0,0.503,0.128,0.848,0.253   C15.175,23.55,16.424,24,18,24c3,0,3-3.468,3-6C21,14.561,19.864,12.029,17.944,11.143z M10.779,7.726   c-0.022-0.057-0.045-0.112-0.067-0.166C10.599,7.282,10.5,7.042,10.5,6.5c0-1.5,0.289-1.5,0.419-1.522   c0.041,0.033,0.198,0.274,0.23,0.858C11.177,6.361,11.083,7.071,10.779,7.726z"/></svg>