<svg xmlns="http://www.w3.org/2000/svg" width="32" height="32" viewBox="0 0 32 32"><g transform="translate(293.286 -1215.628)"><path fill="#cdd7e0" d="m -279.99266,1231.6275 c 0,6.4792 1.90111,11.7316 4.24633,11.7316 2.34522,0 4.24633,-5.2524 4.24633,-11.7316 0,-6.4792 -1.90111,-11.7315 -4.24633,-11.7315 -4.08886,1.2257 -4.30611,2.7269 -8.50734,0 -2.34522,0 -4.24633,5.2523 -4.24633,11.7315 0,6.4792 1.90111,11.7316 4.24633,11.7316 2.34496,0 4.24607,-5.2524 4.24607,-11.7316"/><path fill="#a1b4c5" d="m -275.75,199.53125 c -0.37204,0.11152 -0.68615,0.23106 -1,0.34375 1.86968,1.22831 3.25,5.83366 3.25,11.375 0,5.54134 -1.38032,10.17792 -3.25,11.40625 0.32291,0.21705 0.65291,0.34375 1,0.34375 2.34522,0 4.25,-5.2708 4.25,-11.75 0,-6.4792 -1.90478,-11.71875 -4.25,-11.71875 z" transform="translate(0 1020.362)"/><path fill="#ededed" d="m -284.25,199.53125 c -2.34522,0 -4.25,5.23955 -4.25,11.71875 0,6.4792 1.90478,11.75 4.25,11.75 0.34705,0 0.67711,-0.1267 1,-0.34375 -1.86968,-1.22833 -3.25,-5.86491 -3.25,-11.40625 0,-5.33562 1.26644,-9.82645 3.03125,-11.25 -0.25596,-0.1501 -0.4895,-0.27938 -0.78125,-0.46875 z" transform="translate(0 1020.362)"/><path fill="none" stroke="#373449" stroke-linecap="round" stroke-linejoin="round" d="m -279.99266,1231.6275 c 0,6.4792 1.90111,11.7316 4.24633,11.7316 2.34522,0 4.24633,-5.2524 4.24633,-11.7316 0,-6.4792 -1.90111,-11.7315 -4.24633,-11.7315 -4.08886,1.2257 -4.30611,2.7269 -8.50734,0 -2.34522,0 -4.24633,5.2523 -4.24633,11.7315 0,6.4792 1.90111,11.7316 4.24633,11.7316 2.34496,0 4.24607,-5.2524 4.24607,-11.7316"/><path fill="none" stroke="#373449" stroke-linecap="round" stroke-linejoin="round" d="m -284.58602,1224.3555 c -0.4968,1.7352 -0.81979,3.8677 -0.89639,6.1968 m -0.009,1.8409 c 0.009,0.3674 0.0233,0.7301 0.0438,1.0874 m 0.13088,1.5695 c 0.0716,0.6495 0.16301,1.275 0.27232,1.8712"/><path fill="#fafafa" stroke="#373449" stroke-linecap="round" stroke-linejoin="round" d="m -276.19098,1224.8398 c -2.03306,2.033 -2.03305,5.3293 -10e-6,7.3622 2.03305,2.0331 5.32929,2.0331 7.36232,0 2.03306,-2.0329 2.03305,-5.3292 0,-7.3622 -2.03304,-2.0331 -5.32925,-2.033 -7.36231,0 z m 1.63605,1.6361 c 1.12948,-1.1295 2.96074,-1.1295 4.09019,0 1.12946,1.1294 1.12946,2.9606 1e-5,4.0902 -1.12948,1.1293 -2.96073,1.1293 -4.09018,-10e-5 -1.12946,-1.1295 -1.12947,-2.9607 -2e-5,-4.0901 z"/><rect width="2.314" height="8.098" x="-1062.546" y="681.208" fill="#ff5855" stroke="#373449" stroke-linecap="round" stroke-linejoin="round" transform="rotate(-45)"/><path fill="none" stroke="#fff" stroke-linecap="round" stroke-linejoin="round" stroke-width="2.5" d="m -270,208.5 a 2.5,2.5 0 0 1 -2.1519,2.47565" transform="scale(-.4 .4) rotate(-18.041 9220.931 -1364.061)"/></g></svg>