<svg xmlns="http://www.w3.org/2000/svg" data-name="Layer 1" viewBox="0 0 512 512"><path fill="#2c2b2d" d="M120.99023 513.002a7.50128 7.50128 0 0 1-2.19824-14.67187c14.44239-4.43311 41.43457-16.04053 59.9502-43.97363A106.16712 106.16712 0 0 0 195.11914 411.937l-14.36426-79.00488a7.49387 7.49387 0 0 1 .51075-4.35449A206.37545 206.37545 0 0 1 233.16992 257.208a7.50009 7.50009 0 0 1 9.96485 11.21191 191.38586 191.38586 0 0 0-47.208 64.10791l14.1748 77.95947a7.4858 7.4858 0 0 1 .041 2.43409 121.19884 121.19884 0 0 1-18.89844 49.72216c-21.0957 31.82813-51.69043 45.00489-68.0498 50.02637A7.50018 7.50018 0 0 1 120.99023 513.002zM391.50293 513.002a7.50016 7.50016 0 0 1-2.2041-.332c-16.35938-5.02246-46.95508-18.19971-68.04981-50.02637a121.1793 121.1793 0 0 1-18.89746-49.72265 7.47959 7.47959 0 0 1 .041-2.43311l14.17383-77.96a191.38623 191.38623 0 0 0-47.208-64.10791 7.50008 7.50008 0 0 1 9.96484-11.21191 206.39679 206.39679 0 0 1 51.9043 71.36963 7.49271 7.49271 0 0 1 .51074 4.354L317.375 411.9375a106.15436 106.15436 0 0 0 16.376 42.41895c18.51465 27.93212 45.50781 39.54 59.95019 43.97363a7.50125 7.50125 0 0 1-2.19824 14.67187z"/><path fill="#2c2b2d" d="M494.50977 457.001a7.55006 7.55006 0 0 1-1.00586-.06739A209.24374 209.24374 0 0 1 352.918 373.79639a7.49166 7.49166 0 0 1-1.37109-3.26709L339.00586 292.29a191.39924 191.39924 0 0 0-65.8291-44.7749 7.49974 7.49974 0 1 1 5.67187-13.88575 206.398 206.398 0 0 1 72.67285 50.0625 7.50014 7.50014 0 0 1 1.92872 3.937l12.61621 78.70849a194.23776 194.23776 0 0 0 129.42968 75.729 7.50055 7.50055 0 0 1-.98632 14.93457zM280.07422 190.81836a7.501 7.501 0 0 1-2.77734-14.46924c7.499-3.1875 50.65332-41.1084 57.167-50.05371l13.27441-68.41309A7.498 7.498 0 0 1 350.541 53.356l66.69238-51.061a7.50018 7.50018 0 1 1 9.11914 11.91016L361.9209 63.53516 348.916 130.55762a7.49667 7.49667 0 0 1-.79883 2.20019c-5.43164 9.82422-54.84082 53.37158-65.26953 57.52588A7.47693 7.47693 0 0 1 280.07422 190.81836zM17.49023 457.001a7.50057 7.50057 0 0 1-.96777-14.937 192.55056 192.55056 0 0 0 72.87793-25.05078 195.278 195.278 0 0 0 56.65137-50.602l12.62695-78.77978a7.50009 7.50009 0 0 1 1.92871-3.937 206.54718 206.54718 0 0 1 72.7334-50.10352 7.49973 7.49973 0 1 1 5.67188 13.88574 191.565 191.565 0 0 0-65.88965 44.81592l-12.55176 78.30811a7.50677 7.50677 0 0 1-1.36719 3.26171 207.44138 207.44138 0 0 1-62.20117 56.08155A207.45575 207.45575 0 0 1 18.47754 456.936 7.60174 7.60174 0 0 1 17.49023 457.001zM232.10645 190.75488a7.46386 7.46386 0 0 1-3.87989-1.08691c-12.28613-7.44531-53.80664-44.02734-63.46875-55.918a7.49688 7.49688 0 0 1-1.541-3.30078l-13.01563-67.082L85.71289 13.99365A7.50017 7.50017 0 1 1 94.832 2.0835l66.749 51.10449a7.498 7.498 0 0 1 2.80274 4.52637l13.18359 67.94921C188.13477 137.63574 225.53906 170.5 236 176.83984a7.50058 7.50058 0 0 1-3.89355 13.915z"/><path fill="#afaeb3" d="M75.39531,204.96878a63.06235,63.06235,0,0,0,14.83706,9.83689C122.4229,230.799,157.82253,233.519,192.30908,233.76184c5.45645.03841,61.92776,1.13263,61.92776-3.51184v-30Q182.10441,180.11924,109.972,159.98848c-11.94832-3.3325-25.60207-10.82722-36.69656-.89984-7.49485,6.70642-10.83407,19.29749-7.93013,29.90192A33.83194,33.83194,0,0,0,75.39531,204.96878Z"/><path fill="#2c2b2d" d="M210.58887,241.397c-4.9043,0-10.32324-.03613-16.3252-.1123-.92187-.01172-1.60547-.02051-2.00683-.023-34.57715-.24365-71.27344-2.80322-105.36133-19.73926a69.70355,69.70355,0,0,1-16.59473-11.0498v-.00049a41.29921,41.29921,0,0,1-12.18848-19.501c-3.67578-13.42041.50293-28.82959,10.16211-37.47168,12.35645-11.05713,26.90918-6.21826,37.53516-2.68457,2.17285.72217,4.22461,1.4043,6.17676,1.94922q47.33788,13.20337,94.67383,26.41992l49.59277,13.8418A7.50017,7.50017,0,0,1,261.7373,200.25v30a8.18721,8.18721,0,0,1-2.48437,5.85645C256.72559,238.60205,253.89063,241.397,210.58887,241.397ZM80.49023,199.46484a55.10772,55.10772,0,0,0,13.07911,8.624c31.36132,15.58105,66.01562,17.94238,98.793,18.17285.41895.00293,1.13184.01221,2.0918.02441,33.167.41992,46.78418-.5,52.2832-1.22021V205.94336l-44.10937-12.312q-47.335-13.21216-94.6709-26.41895c-2.30762-.64355-4.63183-1.4165-6.88086-2.16406-10.49414-3.48975-17.209-5.37354-22.7998-.37061-5.40918,4.84034-7.8584,14.44043-5.69727,22.332a26.22,26.22,0,0,0,7.91113,12.45556Z"/><path fill="#afaeb3" d="M436.60469,204.96878a63.06235,63.06235,0,0,1-14.83706,9.83689C389.5771,230.799,354.17747,233.519,319.69092,233.76184c-5.45645.03841-61.92776,1.13263-61.92776-3.51184v-30q72.13243-20.13076,144.26483-40.26152c11.94832-3.3325,25.60207-10.82722,36.69656-.89984,7.49485,6.70642,10.83407,19.29749,7.93013,29.90192A33.83194,33.83194,0,0,1,436.60469,204.96878Z"/><path fill="#2c2b2d" d="M301.41113,241.397c-43.31054,0-46.13672-2.79492-48.66406-5.29052A8.18721,8.18721,0,0,1,250.2627,230.25v-30a7.50017,7.50017,0,0,1,5.48437-7.22412l49.59277-13.8418q47.33643-13.21362,94.67383-26.41992c1.95215-.54492,4.00391-1.227,6.17676-1.94922,10.624-3.53418,25.17773-8.37353,37.53516,2.68506,9.65918,8.6416,13.83789,24.05078,10.16211,37.47168a41.30016,41.30016,0,0,1-12.18848,19.50049v.00049a69.70355,69.70355,0,0,1-16.59473,11.0498c-34.08789,16.936-70.78418,19.49561-105.36133,19.73926-.40136.00244-1.085.01123-2.00683.023C311.73828,241.36084,306.31348,241.397,301.41113,241.397ZM265.2627,225.06592c5.498.71924,19.10839,1.63965,52.2832,1.22021.96-.0122,1.67285-.02148,2.0918-.02441,32.77734-.23047,67.43164-2.5918,98.793-18.17285a55.10772,55.10772,0,0,0,13.07911-8.624,26.21728,26.21728,0,0,0,7.91113-12.45459c2.16113-7.89209-.28809-17.49218-5.69727-22.332-5.59375-5.00488-12.30761-3.12011-22.7998.37012-2.249.74756-4.57324,1.52051-6.88086,2.16406q-47.33643,13.20337-94.6709,26.41895l-44.10937,12.312Zm171.34179-20.09717h0Z"/><ellipse cx="255.85" cy="315.25" fill="#8b8891" rx="23.5" ry="79"/><path fill="#2c2b2d" d="M255.84961,401.75c-10.1709,0-18.17969-9.58887-23.80566-28.5-4.63965-15.59619-7.19434-36.19434-7.19434-58s2.55469-42.40381,7.19434-58c5.626-18.91113,13.63476-28.5,23.80566-28.5s18.17969,9.58887,23.80566,28.5c4.63965,15.59619,7.19434,36.19434,7.19434,58s-2.55469,42.40381-7.19434,58C274.0293,392.16113,266.02051,401.75,255.84961,401.75Zm.05371-14.99561h0Zm-.05371-142.99462c-1.11621.33691-5.69141,4.38134-9.8877,19.36035-3.9414,14.06738-6.1123,32.58105-6.1123,52.12988s2.1709,38.0625,6.1123,52.12988c4.19629,14.979,8.77149,19.02344,9.8877,19.36035,1.11621-.33691,5.69141-4.38134,9.88769-19.36035,3.94141-14.06738,6.11231-32.58105,6.11231-52.12988s-2.1709-38.0625-6.11231-52.12988C261.541,248.14111,256.96582,244.09668,255.84961,243.75977Z"/><ellipse cx="255.85" cy="210.25" fill="#58565d" rx="26.735" ry="54"/><path fill="#2c2b2d" d="M255.84961 271.75c-19.51758 0-34.23535-26.43945-34.23535-61.5s14.71777-61.5 34.23535-61.5 34.23535 26.43945 34.23535 61.5S275.36719 271.75 255.84961 271.75zm0-108c-8.03223 0-19.23535 17.68994-19.23535 46.5s11.20312 46.5 19.23535 46.5 19.23535-17.68994 19.23535-46.5S263.88184 163.75 255.84961 163.75zM255.84961 134.75a7.49974 7.49974 0 0 1-7.5-7.5v-81a7.5 7.5 0 1 1 15 0v81A7.49974 7.49974 0 0 1 255.84961 134.75z"/><path fill="#2c2b2d" d="M255.8457,134.752a7.504,7.504,0,0,1-6.876-10.48828,144.1414,144.1414,0,0,1,46.33593-58.54248,7.50045,7.50045,0,0,1,8.95313,12.03613,129.13334,129.13334,0,0,0-41.5293,52.479A7.50283,7.50283,0,0,1,255.8457,134.752Z"/><path fill="#2c2b2d" d="M255.85156,134.752a7.50162,7.50162,0,0,1-7-4.80468,100.787,100.787,0,0,0-44.34668-51.69141,7.50011,7.50011,0,1,1,7.42578-13.0332,115.79325,115.79325,0,0,1,50.917,59.33007,7.50476,7.50476,0,0,1-6.9961,10.19922Z"/><ellipse cx="256.35" cy="134.25" fill="#e5303e" rx="30" ry="22"/><path fill="#2c2b2d" d="M256.34961 163.75c-21.02832 0-37.5-12.958-37.5-29.5s16.47168-29.5 37.5-29.5 37.5 12.958 37.5 29.5S277.37793 163.75 256.34961 163.75zm0-44c-12.19629 0-22.5 6.64014-22.5 14.5s10.30371 14.5 22.5 14.5 22.5-6.64014 22.5-14.5S268.5459 119.75 256.34961 119.75zM277.84961 298.22461H234.02344a7.5 7.5 0 1 1 0-15h43.82617a7.5 7.5 0 0 1 0 15zM277.80762 332.959H232.97754a7.5 7.5 0 1 1 0-15h44.83008a7.5 7.5 0 0 1 0 15zM274.98047 367.69385H236.30664a7.5 7.5 0 0 1 0-15h38.67383a7.5 7.5 0 1 1 0 15z"/></svg>