<svg xmlns="http://www.w3.org/2000/svg" xmlns:xlink="http://www.w3.org/1999/xlink" width="40" height="40" viewBox="0 0 40 40"><defs><linearGradient id="a" x1="50%" x2="50%" y1="0%" y2="100%"><stop offset="0%" stop-color="#58595B"/><stop offset="100%" stop-color="#424042"/></linearGradient><linearGradient id="b" x1="50%" x2="50%" y1="0%" y2="100%"><stop offset="0%" stop-color="#FA3C2D"/><stop offset="100%" stop-color="#E62318"/></linearGradient><linearGradient id="f" x1="51.45%" x2="60.089%" y1="95.857%" y2="26.507%"><stop offset="0%" stop-color="#484749" stop-opacity="0"/><stop offset="100%" stop-color="#4C4C4E"/></linearGradient><path id="c" d="M19.9995751,13.1875928 C21.4421252,11.3591441 23.7647111,10.29075 26.2511122,10.5590945 C30.0947852,10.9739224 32.8744133,14.4261193 32.4595855,18.2697923 C32.1250479,21.3695192 30.5554382,24.0554189 28.40884,26.5121217 C26.4923692,28.7054522 22.046183,32.3615198 20.0002406,32.3470263 C17.9542981,32.3325328 13.9044322,28.9136634 11.8677922,26.7819375 C9.28702162,24.0806767 7.47579515,21.0630348 7.50016106,17.4711953 C7.52638613,13.605291 10.6815804,10.492616 14.5474847,10.5188411 C16.7611065,10.5338576 18.7277653,11.5747762 19.9995751,13.1875928 Z"/><path id="e" d="M15.6772006,5.61667751 C15.0765473,6.37801244 13.9222038,6.37787614 13.3217303,5.61639939 C12.2917776,4.3102884 10.7319299,3.53030234 9.0373094,3.51880657 C5.99981317,3.49820116 3.52073196,5.94387439 3.50012655,8.98137062 C3.4807714,11.8345618 4.80293844,14.4726195 7.45236531,17.2457419 C9.89137805,19.7986264 13.3357905,22.3387397 14.5108663,22.3470639 C15.7137278,22.355585 19.6812554,19.4262717 21.7792879,17.0251506 C23.9683943,14.5197987 25.1958018,12.1332252 25.4682458,9.60883965 C25.7941819,6.58881091 23.6101884,3.87637043 20.5901596,3.55043428 C18.6844832,3.34476442 16.8433101,4.1386204 15.6772006,5.61667751 Z M20.9120649,0.567754773 C25.579382,1.07147429 28.9546448,5.26342776 28.4509253,9.9307449 C28.1042923,13.1425441 26.6000827,16.067332 24.0383922,18.9990927 C21.3842211,22.0366942 16.8777702,25.3639064 14.4896148,25.3469887 C12.1646373,25.3305185 8.315349,22.4918259 5.28321914,19.318133 C2.14256287,16.0308469 0.474809419,12.7032569 0.500195571,8.96102004 C0.532040304,4.26670768 4.36334763,0.487030868 9.05765999,0.5188756 C11.0910832,0.532669701 13.0031617,1.26541127 14.4999982,2.53715631 C16.2468227,1.05432746 18.5488945,0.312709957 20.9120649,0.567754773 Z"/><radialGradient id="d" cx="100%" cy="29.567%" r="28.152%" fx="100%" fy="29.567%" gradientTransform="matrix(-.853 -.21353 .18644 -.97694 1.798 .798)"><stop offset="0%" stop-color="#FE4231"/><stop offset="100%" stop-color="#FE4231" stop-opacity="0"/></radialGradient></defs><g fill="none" fill-rule="evenodd"><circle cx="20" cy="20" r="20" fill="url(#a)"/><g fill-rule="nonzero" stroke-linecap="round" stroke-linejoin="round" stroke-width="3"><use stroke="url(#b)" xlink:href="#c"/><use stroke="url(#d)" xlink:href="#c"/></g><g transform="translate(5.5 8.5)"><mask id="g" fill="#fff"><use xlink:href="#e"/></mask><rect width="13" height="14" x="16" y="10" fill="url(#f)" mask="url(#g)" transform="rotate(22 22.5 17)"/></g><rect width="3" height="3.8" x="30.897" y="16.923" fill="#FE4231" rx="1.5" transform="rotate(5 32.397 18.823)"/></g></svg>