<svg xmlns="http://www.w3.org/2000/svg" data-name="Layer 1" viewBox="0 0 32 32"><path d="M27.78,3.22a.48.48,0,0,0,.48-.49V.48A.48.48,0,0,0,27.78,0H11.49A.49.49,0,0,0,11,.48V2.73h0v5.5H8.05a.48.48,0,0,0-.49.48v.71H6.71V8.71a.47.47,0,0,0-.48-.48H5.35a1.61,1.61,0,1,0,0,3.21h.88A.47.47,0,0,0,6.71,11v-.58h.85V11a.48.48,0,0,0,.49.48H9.93v1.43a3.42,3.42,0,0,0-2.47,3.27v7.22A3.43,3.43,0,0,0,10,26.65v1.64a1.56,1.56,0,0,0,1.09,1.49v1.74a.49.49,0,0,0,1,0V29.78a1.56,1.56,0,0,0,1.09-1.49V26.64a3.42,3.42,0,0,0,2.5-3.28V16.14a3.37,3.37,0,0,0-2.46-3.27V11.44h14.6a.47.47,0,0,0,.48-.48V8.71a.47.47,0,0,0-.48-.48H26.12v-5Zm-22,7.25h-.4a.64.64,0,1,1,0-1.27h.4ZM12,3.22h1.15v5H12Zm.2,25.07a.61.61,0,1,1-1.21,0V26.77h1.21Zm2.5-12.15v7.22a2.44,2.44,0,0,1-2.1,2.41h0l-.12,0H10.87a1.69,1.69,0,0,1-.33,0,2.44,2.44,0,0,1-2.11-2.41V16.14a2.46,2.46,0,0,1,2.07-2.41,2.22,2.22,0,0,1,.37,0h1.37a1.64,1.64,0,0,1,.38,0A2.41,2.41,0,0,1,14.67,16.14ZM10.9,12.73V11.44h1.31v1.29ZM27.29,9.2v1.27H8.53V9.2H27.29ZM17.52,4.1a.49.49,0,0,0-.49.48V8.23H14.09v-5h5.24v5H18V4.58A.49.49,0,0,0,17.52,4.1Zm6,0a.48.48,0,0,0-.48.48V8.23H20.3v-5h4.85v5H24V4.58A.48.48,0,0,0,23.52,4.1Zm2.12-1.85H12V1H27.29V2.25Z"/><path d="M9.45 15.63a.49.49 0 0 0 .48.49h3.24a.49.49 0 0 0 0-1H9.93A.49.49 0 0 0 9.45 15.63zM13.17 17.21H9.93a.48.48 0 0 0-.48.48.49.49 0 0 0 .48.49h3.24a.48.48 0 0 0 .48-.49A.47.47 0 0 0 13.17 17.21zM13.17 19.26H9.93a.49.49 0 0 0-.48.49.48.48 0 0 0 .48.48h3.24a.47.47 0 0 0 .48-.48A.48.48 0 0 0 13.17 19.26zM13.17 21.32H9.93a.49.49 0 0 0-.48.49.48.48 0 0 0 .48.48h3.24a.47.47 0 0 0 .48-.48A.48.48 0 0 0 13.17 21.32zM13.17 23.38H9.93a.49.49 0 0 0 0 1h3.24a.49.49 0 0 0 0-1z"/></svg>