<svg xmlns="http://www.w3.org/2000/svg" viewBox="0 0 24 24"><path fill="#00B8AF" d="M1 3v18a2 2 0 0 0 2 2h18a2 2 0 0 0 2-2V3a2 2 0 0 0-2-2H3a2 2 0 0 0-2 2z"/><path fill="#FFF" d="M21 1H3a2 2 0 0 0-2 2v.25a2 2 0 0 1 2-2h18a2 2 0 0 1 2 2V3a2 2 0 0 0-2-2z" opacity=".2"/><path fill="#010101" d="M21 22.75H3a2 2 0 0 1-2-2V21a2 2 0 0 0 2 2h18a2 2 0 0 0 2-2v-.25a2 2 0 0 1-2 2z" opacity=".1"/><path fill="#FFF" d="M18.364 6.636C16.664 4.936 14.404 4 12 4s-4.664.936-6.364 2.636l-.353.354 3.535 3.535.353-.354a4.005 4.005 0 0 1 5.658 0l.353.354 3.535-3.535-.353-.354z"/><path fill="#010101" d="M5.636 6.886c1.7-1.7 3.96-2.636 6.364-2.636s4.664.936 6.364 2.636l.228.229.125-.125-.353-.354C16.664 4.936 14.404 4 12 4s-4.664.936-6.364 2.636l-.353.354.125.125.228-.229z" opacity=".1"/><path fill="#009887" d="M10.856 9.187L9.92 7 9 7.394l.94 2.192a3.95 3.95 0 0 1 .916-.399z"/><linearGradient id="a" x1="9.272" x2="11.281" y1="7.647" y2="9.655" gradientUnits="userSpaceOnUse"><stop offset="0" stop-color="#010101" stop-opacity=".1"/><stop offset="1" stop-color="#010101" stop-opacity="0"/></linearGradient><path fill="url(#a)" d="M9.925 9.553v.04l.022-.011-.008.004-.014-.033zM9.92 7l.934 2.18c.35-.105.711-.165 1.075-.171L9.918 7z"/><linearGradient id="b" x1="-.653" x2="24.653" y1="6.1" y2="17.9" gradientUnits="userSpaceOnUse"><stop offset="0" stop-color="#FFF" stop-opacity=".2"/><stop offset="1" stop-color="#FFF" stop-opacity="0"/></linearGradient><path fill="url(#b)" d="M1 3v18a2 2 0 0 0 2 2h18a2 2 0 0 0 2-2V3a2 2 0 0 0-2-2H3a2 2 0 0 0-2 2z"/></svg>